<svg xmlns="http://www.w3.org/2000/svg" xmlns:xlink="http://www.w3.org/1999/xlink" width="1920" height="1080" viewBox="0 0 1920 1080">
  <defs>
    <clipPath id="clip-path">
      <rect id="Rectangle_9" data-name="Rectangle 9" width="1920" height="1080" fill="#093436"/>
    </clipPath>
    <clipPath id="clip-path-2">
      <path id="Path_677" data-name="Path 677" d="M0,0H1920V1080L0,1230Z" fill="#093436"/>
    </clipPath>
  </defs>
  <g id="Mask_Group_6" data-name="Mask Group 6" clip-path="url(#clip-path)">
    <g id="Mask_Group_5" data-name="Mask Group 5" clip-path="url(#clip-path-2)">
      <g id="Group_2352" data-name="Group 2352" transform="translate(0.366 -1175.747)" opacity="0.1">
        <path id="Path_670" data-name="Path 670" d="M5777.392,899.474s-137.378-223.033-523.162-223.033-611.492,223.033-940.8,223.033-394.689-223.033-566.084-223.033" transform="matrix(0.995, -0.105, 0.105, 0.995, -3858.892, 2244.369)" fill="none" stroke="#fff" stroke-width="1"/>
        <path id="Path_671" data-name="Path 671" d="M5777.392,899.474s-137.378-223.033-523.162-223.033-611.492,223.033-940.8,223.033-394.689-223.033-566.084-223.033" transform="translate(-3802.616 1413.729)" fill="none" stroke="#fff" stroke-width="1"/>
        <path id="Path_672" data-name="Path 672" d="M5777.392,899.474s-137.378-223.033-523.162-223.033-611.492,223.033-940.8,223.033-394.689-223.033-566.084-223.033" transform="translate(-3620.72 297.987) rotate(9)" fill="none" stroke="#fff" stroke-width="1"/>
        <path id="Path_669" data-name="Path 669" d="M5777.392,899.474s-137.378-223.033-523.162-223.033-611.492,223.033-940.8,223.033-394.689-223.033-566.084-223.033" transform="matrix(0.998, -0.07, 0.07, 0.998, -3845.98, 916.433)" fill="none" stroke="#fff" stroke-width="1"/>
        <path id="Path_668" data-name="Path 668" d="M5777.392,899.474s-137.378-223.033-523.162-223.033-611.492,223.033-940.8,223.033-394.689-223.033-566.084-223.033" transform="translate(-3671.09 -408.64) rotate(7)" fill="none" stroke="#fff" stroke-width="1"/>
      </g>
      <rect id="Image_26" data-name="Image 26" width="413" height="518" transform="translate(1726.104 988.765) rotate(7)" fill="#7ebf9a" opacity="0.1"/>
      <g id="Group_2358" data-name="Group 2358" transform="translate(-2435.296 1573.688) rotate(-8)" opacity="0.3">
        <circle id="Ellipse_3" data-name="Ellipse 3" cx="4.661" cy="4.661" r="4.661" transform="translate(2341 -203.698)" fill="#fff"/>
        <circle id="Ellipse_20" data-name="Ellipse 20" cx="4.661" cy="4.661" r="4.661" transform="translate(2341 -162.17)" fill="#fff"/>
        <circle id="Ellipse_21" data-name="Ellipse 21" cx="4.661" cy="4.661" r="4.661" transform="translate(2341 -120.643)" fill="#fff"/>
        <circle id="Ellipse_30" data-name="Ellipse 30" cx="4.661" cy="4.661" r="4.661" transform="translate(2341 -79.115)" fill="#fff"/>
        <circle id="Ellipse_39" data-name="Ellipse 39" cx="4.661" cy="4.661" r="4.661" transform="translate(2341 -38.435)" fill="#fff"/>
        <circle id="Ellipse_48" data-name="Ellipse 48" cx="4.661" cy="4.661" r="4.661" transform="translate(2341 3.093)" fill="#fff"/>
        <circle id="Ellipse_57" data-name="Ellipse 57" cx="4.661" cy="4.661" r="4.661" transform="translate(2341 44.62)" fill="#fff"/>
        <circle id="Ellipse_66" data-name="Ellipse 66" cx="4.661" cy="4.661" r="4.661" transform="translate(2341 86.148)" fill="#fff"/>
        <circle id="Ellipse_75" data-name="Ellipse 75" cx="4.661" cy="4.661" r="4.661" transform="translate(2341 127.676)" fill="#fff"/>
        <circle id="Ellipse_84" data-name="Ellipse 84" cx="4.661" cy="4.661" r="4.661" transform="translate(2341 169.203)" fill="#fff"/>
        <circle id="Ellipse_4" data-name="Ellipse 4" cx="4.661" cy="4.661" r="4.661" transform="translate(2382.528 -203.698)" fill="#fff"/>
        <circle id="Ellipse_19" data-name="Ellipse 19" cx="4.661" cy="4.661" r="4.661" transform="translate(2382.528 -162.17)" fill="#fff"/>
        <circle id="Ellipse_22" data-name="Ellipse 22" cx="4.661" cy="4.661" r="4.661" transform="translate(2382.528 -120.643)" fill="#fff"/>
        <circle id="Ellipse_31" data-name="Ellipse 31" cx="4.661" cy="4.661" r="4.661" transform="translate(2382.528 -79.115)" fill="#fff"/>
        <circle id="Ellipse_40" data-name="Ellipse 40" cx="4.661" cy="4.661" r="4.661" transform="translate(2382.528 -38.435)" fill="#fff"/>
        <circle id="Ellipse_49" data-name="Ellipse 49" cx="4.661" cy="4.661" r="4.661" transform="translate(2382.528 3.093)" fill="#fff"/>
        <circle id="Ellipse_58" data-name="Ellipse 58" cx="4.661" cy="4.661" r="4.661" transform="translate(2382.528 44.62)" fill="#fff"/>
        <circle id="Ellipse_67" data-name="Ellipse 67" cx="4.661" cy="4.661" r="4.661" transform="translate(2382.528 86.148)" fill="#fff"/>
        <circle id="Ellipse_76" data-name="Ellipse 76" cx="4.661" cy="4.661" r="4.661" transform="translate(2382.528 127.676)" fill="#fff"/>
        <circle id="Ellipse_85" data-name="Ellipse 85" cx="4.661" cy="4.661" r="4.661" transform="translate(2382.528 169.203)" fill="#fff"/>
        <circle id="Ellipse_5" data-name="Ellipse 5" cx="4.661" cy="4.661" r="4.661" transform="translate(2424.055 -203.698)" fill="#fff"/>
        <circle id="Ellipse_13" data-name="Ellipse 13" cx="4.661" cy="4.661" r="4.661" transform="translate(2424.055 -162.17)" fill="#fff"/>
        <circle id="Ellipse_23" data-name="Ellipse 23" cx="4.661" cy="4.661" r="4.661" transform="translate(2424.055 -120.643)" fill="#fff"/>
        <circle id="Ellipse_32" data-name="Ellipse 32" cx="4.661" cy="4.661" r="4.661" transform="translate(2424.055 -79.115)" fill="#fff"/>
        <circle id="Ellipse_41" data-name="Ellipse 41" cx="4.661" cy="4.661" r="4.661" transform="translate(2424.055 -38.435)" fill="#fff"/>
        <circle id="Ellipse_50" data-name="Ellipse 50" cx="4.661" cy="4.661" r="4.661" transform="translate(2424.055 3.093)" fill="#fff"/>
        <circle id="Ellipse_59" data-name="Ellipse 59" cx="4.661" cy="4.661" r="4.661" transform="translate(2424.055 44.62)" fill="#fff"/>
        <circle id="Ellipse_68" data-name="Ellipse 68" cx="4.661" cy="4.661" r="4.661" transform="translate(2424.055 86.148)" fill="#fff"/>
        <circle id="Ellipse_77" data-name="Ellipse 77" cx="4.661" cy="4.661" r="4.661" transform="translate(2424.055 127.676)" fill="#fff"/>
        <circle id="Ellipse_86" data-name="Ellipse 86" cx="4.661" cy="4.661" r="4.661" transform="translate(2424.055 169.203)" fill="#fff"/>
        <circle id="Ellipse_6" data-name="Ellipse 6" cx="4.661" cy="4.661" r="4.661" transform="translate(2465.583 -203.698)" fill="#fff"/>
        <circle id="Ellipse_14" data-name="Ellipse 14" cx="4.661" cy="4.661" r="4.661" transform="translate(2465.583 -162.17)" fill="#fff"/>
        <circle id="Ellipse_24" data-name="Ellipse 24" cx="4.661" cy="4.661" r="4.661" transform="translate(2465.583 -120.643)" fill="#fff"/>
        <circle id="Ellipse_33" data-name="Ellipse 33" cx="4.661" cy="4.661" r="4.661" transform="translate(2465.583 -79.115)" fill="#fff"/>
        <circle id="Ellipse_42" data-name="Ellipse 42" cx="4.661" cy="4.661" r="4.661" transform="translate(2465.583 -38.435)" fill="#fff"/>
        <circle id="Ellipse_51" data-name="Ellipse 51" cx="4.661" cy="4.661" r="4.661" transform="translate(2465.583 3.093)" fill="#fff"/>
        <circle id="Ellipse_60" data-name="Ellipse 60" cx="4.661" cy="4.661" r="4.661" transform="translate(2465.583 44.62)" fill="#fff"/>
        <circle id="Ellipse_69" data-name="Ellipse 69" cx="4.661" cy="4.661" r="4.661" transform="translate(2465.583 86.148)" fill="#fff"/>
        <circle id="Ellipse_78" data-name="Ellipse 78" cx="4.661" cy="4.661" r="4.661" transform="translate(2465.583 127.676)" fill="#fff"/>
        <circle id="Ellipse_87" data-name="Ellipse 87" cx="4.661" cy="4.661" r="4.661" transform="translate(2465.583 169.203)" fill="#fff"/>
        <circle id="Ellipse_7" data-name="Ellipse 7" cx="4.661" cy="4.661" r="4.661" transform="translate(2507.111 -203.698)" fill="#fff"/>
        <circle id="Ellipse_15" data-name="Ellipse 15" cx="4.661" cy="4.661" r="4.661" transform="translate(2507.111 -162.17)" fill="#fff"/>
        <circle id="Ellipse_25" data-name="Ellipse 25" cx="4.661" cy="4.661" r="4.661" transform="translate(2507.111 -120.643)" fill="#fff"/>
        <circle id="Ellipse_34" data-name="Ellipse 34" cx="4.661" cy="4.661" r="4.661" transform="translate(2507.111 -79.115)" fill="#fff"/>
        <circle id="Ellipse_43" data-name="Ellipse 43" cx="4.661" cy="4.661" r="4.661" transform="translate(2507.111 -38.435)" fill="#fff"/>
        <circle id="Ellipse_52" data-name="Ellipse 52" cx="4.661" cy="4.661" r="4.661" transform="translate(2507.111 3.093)" fill="#fff"/>
        <circle id="Ellipse_61" data-name="Ellipse 61" cx="4.661" cy="4.661" r="4.661" transform="translate(2507.111 44.62)" fill="#fff"/>
        <circle id="Ellipse_70" data-name="Ellipse 70" cx="4.661" cy="4.661" r="4.661" transform="translate(2507.111 86.148)" fill="#fff"/>
        <circle id="Ellipse_79" data-name="Ellipse 79" cx="4.661" cy="4.661" r="4.661" transform="translate(2507.111 127.676)" fill="#fff"/>
        <circle id="Ellipse_88" data-name="Ellipse 88" cx="4.661" cy="4.661" r="4.661" transform="translate(2507.111 169.203)" fill="#fff"/>
        <circle id="Ellipse_8" data-name="Ellipse 8" cx="4.661" cy="4.661" r="4.661" transform="translate(2548.638 -203.698)" fill="#fff"/>
        <circle id="Ellipse_16" data-name="Ellipse 16" cx="4.661" cy="4.661" r="4.661" transform="translate(2548.638 -162.17)" fill="#fff"/>
        <circle id="Ellipse_26" data-name="Ellipse 26" cx="4.661" cy="4.661" r="4.661" transform="translate(2548.638 -120.643)" fill="#fff"/>
        <circle id="Ellipse_35" data-name="Ellipse 35" cx="4.661" cy="4.661" r="4.661" transform="translate(2548.638 -79.115)" fill="#fff"/>
        <circle id="Ellipse_44" data-name="Ellipse 44" cx="4.661" cy="4.661" r="4.661" transform="translate(2548.638 -38.435)" fill="#fff"/>
        <circle id="Ellipse_53" data-name="Ellipse 53" cx="4.661" cy="4.661" r="4.661" transform="translate(2548.638 3.093)" fill="#fff"/>
        <circle id="Ellipse_62" data-name="Ellipse 62" cx="4.661" cy="4.661" r="4.661" transform="translate(2548.638 44.62)" fill="#fff"/>
        <circle id="Ellipse_71" data-name="Ellipse 71" cx="4.661" cy="4.661" r="4.661" transform="translate(2548.638 86.148)" fill="#fff"/>
        <circle id="Ellipse_80" data-name="Ellipse 80" cx="4.661" cy="4.661" r="4.661" transform="translate(2548.638 127.676)" fill="#fff"/>
        <circle id="Ellipse_89" data-name="Ellipse 89" cx="4.661" cy="4.661" r="4.661" transform="translate(2548.638 169.203)" fill="#fff"/>
        <circle id="Ellipse_9" data-name="Ellipse 9" cx="4.238" cy="4.238" r="4.238" transform="translate(2590.166 -203.698)" fill="#fff"/>
        <circle id="Ellipse_17" data-name="Ellipse 17" cx="4.238" cy="4.238" r="4.238" transform="translate(2590.166 -162.17)" fill="#fff"/>
        <circle id="Ellipse_27" data-name="Ellipse 27" cx="4.238" cy="4.238" r="4.238" transform="translate(2590.166 -120.643)" fill="#fff"/>
        <circle id="Ellipse_36" data-name="Ellipse 36" cx="4.238" cy="4.238" r="4.238" transform="translate(2590.166 -79.115)" fill="#fff"/>
        <circle id="Ellipse_45" data-name="Ellipse 45" cx="4.238" cy="4.238" r="4.238" transform="translate(2590.166 -38.435)" fill="#fff"/>
        <circle id="Ellipse_54" data-name="Ellipse 54" cx="4.238" cy="4.238" r="4.238" transform="translate(2590.166 3.093)" fill="#fff"/>
        <circle id="Ellipse_63" data-name="Ellipse 63" cx="4.238" cy="4.238" r="4.238" transform="translate(2590.166 44.62)" fill="#fff"/>
        <circle id="Ellipse_72" data-name="Ellipse 72" cx="4.238" cy="4.238" r="4.238" transform="translate(2590.166 86.148)" fill="#fff"/>
        <circle id="Ellipse_81" data-name="Ellipse 81" cx="4.238" cy="4.238" r="4.238" transform="translate(2590.166 127.676)" fill="#fff"/>
        <circle id="Ellipse_90" data-name="Ellipse 90" cx="4.238" cy="4.238" r="4.238" transform="translate(2590.166 169.203)" fill="#fff"/>
        <circle id="Ellipse_10" data-name="Ellipse 10" cx="4.238" cy="4.238" r="4.238" transform="translate(2631.694 -203.698)" fill="#fff"/>
        <circle id="Ellipse_18" data-name="Ellipse 18" cx="4.238" cy="4.238" r="4.238" transform="translate(2631.694 -162.17)" fill="#fff"/>
        <circle id="Ellipse_28" data-name="Ellipse 28" cx="4.238" cy="4.238" r="4.238" transform="translate(2631.694 -120.643)" fill="#fff"/>
        <circle id="Ellipse_37" data-name="Ellipse 37" cx="4.238" cy="4.238" r="4.238" transform="translate(2631.694 -79.115)" fill="#fff"/>
        <circle id="Ellipse_46" data-name="Ellipse 46" cx="4.238" cy="4.238" r="4.238" transform="translate(2631.694 -38.435)" fill="#fff"/>
        <circle id="Ellipse_55" data-name="Ellipse 55" cx="4.238" cy="4.238" r="4.238" transform="translate(2631.694 3.093)" fill="#fff"/>
        <circle id="Ellipse_64" data-name="Ellipse 64" cx="4.238" cy="4.238" r="4.238" transform="translate(2631.694 44.62)" fill="#fff"/>
        <circle id="Ellipse_73" data-name="Ellipse 73" cx="4.238" cy="4.238" r="4.238" transform="translate(2631.694 86.148)" fill="#fff"/>
        <circle id="Ellipse_82" data-name="Ellipse 82" cx="4.238" cy="4.238" r="4.238" transform="translate(2631.694 127.676)" fill="#fff"/>
        <circle id="Ellipse_91" data-name="Ellipse 91" cx="4.238" cy="4.238" r="4.238" transform="translate(2631.694 169.203)" fill="#fff"/>
        <circle id="Ellipse_11" data-name="Ellipse 11" cx="4.661" cy="4.661" r="4.661" transform="translate(2672.374 -203.698)" fill="#fff"/>
        <circle id="Ellipse_12" data-name="Ellipse 12" cx="4.661" cy="4.661" r="4.661" transform="translate(2672.374 -162.17)" fill="#fff"/>
        <circle id="Ellipse_29" data-name="Ellipse 29" cx="4.661" cy="4.661" r="4.661" transform="translate(2672.374 -120.643)" fill="#fff"/>
        <circle id="Ellipse_38" data-name="Ellipse 38" cx="4.661" cy="4.661" r="4.661" transform="translate(2672.374 -79.115)" fill="#fff"/>
        <circle id="Ellipse_47" data-name="Ellipse 47" cx="4.661" cy="4.661" r="4.661" transform="translate(2672.374 -38.435)" fill="#fff"/>
        <circle id="Ellipse_56" data-name="Ellipse 56" cx="4.661" cy="4.661" r="4.661" transform="translate(2672.374 3.093)" fill="#fff"/>
        <circle id="Ellipse_65" data-name="Ellipse 65" cx="4.661" cy="4.661" r="4.661" transform="translate(2672.374 44.62)" fill="#fff"/>
        <circle id="Ellipse_74" data-name="Ellipse 74" cx="4.661" cy="4.661" r="4.661" transform="translate(2672.374 86.148)" fill="#fff"/>
        <circle id="Ellipse_83" data-name="Ellipse 83" cx="4.661" cy="4.661" r="4.661" transform="translate(2672.374 127.676)" fill="#fff"/>
        <circle id="Ellipse_92" data-name="Ellipse 92" cx="4.661" cy="4.661" r="4.661" transform="translate(2672.374 169.203)" fill="#fff"/>
      </g>
    </g>
  </g>
</svg>
